<?xml version="1.0" encoding="UTF-8" standalone="no"?>
<svg width="156px" height="36px" viewBox="0 0 156 36" version="1.1" xmlns="http://www.w3.org/2000/svg" xmlns:xlink="http://www.w3.org/1999/xlink">
    <!-- Generator: Sketch 3.6.1 (26313) - http://www.bohemiancoding.com/sketch -->
    <title>blueacorn-logo</title>
    <desc>Created with Sketch.</desc>
    <defs></defs>
    <g id="Page-1" stroke="none" stroke-width="1" fill="none" fill-rule="evenodd">
        <g id="blueacorn-logo" fill="#FCFAF9">
            <g id="Group">
                <g transform="translate(46.000000, 15.000000)" id="Shape">
                    <g>
                        <path d="M0.507,20.377 L0.507,0.358 L2.024,0.358 L2.024,8.91 C2.726,7.272 4.552,6.3 6.321,6.3 C10.59,6.3 11.966,9.771 11.966,13.436 C11.966,16.963 10.478,20.683 6.321,20.683 C4.383,20.683 2.866,19.848 1.967,18.073 L1.911,20.378 L0.507,20.378 L0.507,20.377 Z M6.181,19.238 C9.467,19.238 10.31,16.1 10.31,13.435 C10.31,10.714 9.552,7.744 6.181,7.744 C3.119,7.744 1.968,10.882 1.968,13.435 C1.968,14.74 2.249,16.157 2.895,17.293 C3.569,18.435 4.608,19.238 6.181,19.238 L6.181,19.238 Z"></path>
                        <path d="M13.4,20.377 L13.4,0.358 L14.917,0.358 L14.917,20.377 L13.4,20.377 L13.4,20.377 Z"></path>
                        <path d="M18.119,14.797 C18.119,17.129 18.597,19.238 21.433,19.238 C24.579,19.238 25.534,16.6 25.534,13.963 L25.534,6.578 L27.051,6.578 L27.051,17.101 C27.051,18.183 27.079,19.294 27.192,20.376 L25.816,20.376 L25.732,17.988 C24.721,19.764 23.344,20.681 21.237,20.681 C17.614,20.681 16.603,18.237 16.603,15.015 L16.603,6.577 L18.12,6.577 L18.12,14.797 L18.119,14.797 Z"></path>
                        <path d="M30.085,13.714 C30.085,16.628 31.714,19.266 35.28,19.266 C36.488,19.266 37.668,19.017 38.678,18.46 L38.763,19.961 C37.555,20.488 36.488,20.683 35.168,20.683 C30.421,20.683 28.426,17.322 28.426,13.436 C28.426,9.854 30.448,6.3 34.382,6.3 C38.538,6.3 39.661,9.659 39.661,12.99 L39.661,13.714 L30.085,13.714 L30.085,13.714 Z M38.006,12.381 C37.922,10.241 37.247,7.66 34.41,7.66 C31.405,7.66 30.253,10.435 30.113,12.381 L38.006,12.381 L38.006,12.381 Z"></path>
                    </g>
                    <g transform="translate(44.000000, 6.000000)">
                        <path d="M1.655,1.119 C3.116,0.451 5.082,0.035 6.682,0.035 C11.092,0.035 12.917,1.839 12.917,6.059 L12.917,7.893 C12.917,9.335 12.946,10.417 12.975,11.472 C13.002,12.555 13.058,13.555 13.142,14.666 L9.828,14.666 C9.687,13.915 9.687,12.971 9.66,12.527 L9.604,12.527 C8.732,14.112 6.851,15 5.138,15 C2.583,15 0.082,13.472 0.082,10.753 C0.082,8.613 1.121,7.365 2.555,6.671 C3.987,5.976 5.84,5.838 7.413,5.838 L9.492,5.838 C9.492,3.533 8.453,2.756 6.233,2.756 C4.632,2.756 3.031,3.365 1.767,4.312 L1.655,1.119 L1.655,1.119 Z M6.065,12.279 C7.216,12.279 8.115,11.78 8.705,11 C9.323,10.196 9.492,9.168 9.492,8.059 L7.862,8.059 C6.176,8.059 3.677,8.337 3.677,10.532 C3.678,11.751 4.718,12.279 6.065,12.279 L6.065,12.279 Z"></path>
                        <path d="M24.943,3.451 C24.268,3.145 23.538,2.922 22.386,2.922 C20.055,2.922 18.567,4.755 18.567,7.447 C18.567,10.085 19.832,12.113 22.471,12.113 C23.537,12.113 24.717,11.723 25.364,11.445 L25.533,14.527 C24.438,14.86 23.314,15 21.769,15 C17.023,15 14.636,11.806 14.636,7.447 C14.636,3.312 17.108,0.035 21.63,0.035 C23.146,0.035 24.24,0.202 25.279,0.506 L24.943,3.451 L24.943,3.451 Z"></path>
                        <path d="M33.36,0.035 C37.659,0.035 40.945,2.894 40.945,7.615 C40.945,11.723 38.164,15 33.36,15 C28.587,15 25.804,11.724 25.804,7.615 C25.805,2.895 29.093,0.035 33.36,0.035 L33.36,0.035 Z M33.36,12.113 C36.254,12.113 37.012,9.557 37.012,7.169 C37.012,4.978 35.832,2.922 33.36,2.922 C30.918,2.922 29.738,5.033 29.738,7.169 C29.738,9.53 30.495,12.113 33.36,12.113 L33.36,12.113 Z"></path>
                        <path d="M42.435,0.367 L45.777,0.367 L45.777,3.616 L45.834,3.616 C46.002,2.285 47.547,0.035 49.794,0.035 C50.159,0.035 50.553,0.035 50.945,0.145 L50.945,3.894 C50.607,3.7 49.934,3.588 49.259,3.588 C46.197,3.588 46.197,7.364 46.197,9.418 L46.197,14.666 L42.434,14.666 L42.434,0.367 L42.435,0.367 Z"></path>
                        <path d="M52.715,0.367 L56.281,0.367 L56.281,2.312 L56.339,2.312 C57.518,0.672 59.118,0.035 61.084,0.035 C64.511,0.035 66,2.423 66,5.642 L66,14.666 L62.235,14.666 L62.235,7.03 C62.235,5.282 62.208,2.921 59.792,2.921 C57.067,2.921 56.478,5.837 56.478,7.668 L56.478,14.666 L52.715,14.666 L52.715,0.367 L52.715,0.367 Z"></path>
                    </g>
                </g>
                <g id="Shape">
                    <path d="M13.357,14.006 C17.704,10.997 22.607,9.362 27.542,9.006 C27.42,7.902 27.024,6.81 26.334,5.836 C25.154,4.17 23.359,3.184 21.463,2.966 C21.39,2.956 21.309,2.947 21.22,2.94 C17.27,2.637 13.223,3.349 9.503,5.146 C9.274,4.625 8.99,4.117 8.648,3.636 C7.014,1.329 4.438,0.069 1.794,0 L1.211,2.435 C3.405,2.423 5.57,3.44 6.923,5.35 C7.142,5.66 7.332,5.983 7.492,6.312 L9.585,7.73 L6.389,7.297 C3.389,10.142 1.314,13.67 0.248,17.457 C0.224,17.542 0.206,17.619 0.189,17.691 C-0.252,19.526 0.071,21.531 1.252,23.198 C1.929,24.153 2.808,24.884 3.793,25.377 C5.822,20.955 9.04,16.995 13.357,14.006 L13.357,14.006 Z M25.371,6.502 C25.679,6.938 25.914,7.4 26.084,7.877 C25.673,7.926 25.015,8.04 24.605,8.106 C24.376,6.087 22.51,4.578 21.588,4.158 C23.063,4.395 24.445,5.197 25.371,6.502 L25.371,6.502 Z"></path>
                    <path d="M31.336,16.575 C30.932,14.925 30.218,13.32 29.174,11.846 C28.714,11.197 28.204,10.601 27.659,10.054 C22.897,10.392 18.162,11.967 13.967,14.87 C9.819,17.742 6.724,21.549 4.77,25.799 C5.111,26.52 5.514,27.22 5.991,27.893 C7.035,29.367 8.317,30.579 9.748,31.518 C14.385,34.723 20.076,36.062 25.626,35.333 C25.839,35.318 26.051,35.284 26.262,35.237 C26.631,35.178 27.001,35.112 27.367,35.035 C27.634,35.283 28.047,35.322 28.36,35.103 C28.364,35.101 28.366,35.098 28.369,35.096 C28.372,35.094 28.376,35.092 28.381,35.09 C28.692,34.875 28.797,34.477 28.652,34.147 C28.852,33.831 29.041,33.51 29.223,33.189 C29.338,33.009 29.442,32.822 29.531,32.63 C32.124,27.726 32.794,21.978 31.336,16.575 L31.336,16.575 Z M27.855,33.171 C29.181,29.803 29.673,27.386 29.706,23.301 C29.738,19.208 28.708,14.823 25.399,11.533 C26.01,11.434 26.623,11.358 27.235,11.302 C27.545,11.654 27.839,12.024 28.116,12.413 C28.863,13.468 29.43,14.595 29.829,15.756 C29.832,15.751 29.837,15.746 29.841,15.742 C31.783,21.581 31.017,27.966 27.855,33.171 L27.855,33.171 Z"></path>
                </g>
            </g>
        </g>
    </g>
</svg>