<svg width="156" height="36" viewBox="0 0 156 36" xmlns="http://www.w3.org/2000/svg"><title>blueacorn-logo</title><g fill="#FCFAF9" fill-rule="evenodd"><path d="M46.507 35.377V15.358h1.517v8.552c.702-1.638 2.528-2.61 4.297-2.61 4.269 0 5.645 3.471 5.645 7.136 0 3.527-1.488 7.247-5.645 7.247-1.938 0-3.455-.835-4.354-2.61l-.056 2.305h-1.404v-.001zm5.674-1.139c3.286 0 4.129-3.138 4.129-5.803 0-2.721-.758-5.691-4.129-5.691-3.062 0-4.213 3.138-4.213 5.691 0 1.305.281 2.722.927 3.858.674 1.142 1.713 1.945 3.286 1.945zM59.4 35.377V15.358h1.517v20.019H59.4zM64.119 29.797c0 2.332.478 4.441 3.314 4.441 3.146 0 4.101-2.638 4.101-5.275v-7.385h1.517v10.523c0 1.082.028 2.193.141 3.275h-1.376l-.084-2.388c-1.011 1.776-2.388 2.693-4.495 2.693-3.623 0-4.634-2.444-4.634-5.666v-8.438h1.517v8.22h-.001zM76.085 28.714c0 2.914 1.629 5.552 5.195 5.552 1.208 0 2.388-.249 3.398-.806l.085 1.501c-1.208.527-2.275.722-3.595.722-4.747 0-6.742-3.361-6.742-7.247 0-3.582 2.022-7.136 5.956-7.136 4.156 0 5.279 3.359 5.279 6.69v.724h-9.576zm7.921-1.333c-.084-2.14-.759-4.721-3.596-4.721-3.005 0-4.157 2.775-4.297 4.721h7.893z"/><g><path d="M91.655 22.119c1.461-.668 3.427-1.084 5.027-1.084 4.41 0 6.235 1.804 6.235 6.024v1.834c0 1.442.029 2.524.058 3.579a61.49 61.49 0 0 0 .167 3.194h-3.314c-.141-.751-.141-1.695-.168-2.139h-.056C98.732 35.112 96.851 36 95.138 36c-2.555 0-5.056-1.528-5.056-4.247 0-2.14 1.039-3.388 2.473-4.082 1.432-.695 3.285-.833 4.858-.833h2.079c0-2.305-1.039-3.082-3.259-3.082-1.601 0-3.202.609-4.466 1.556l-.112-3.193zm4.41 11.16c1.151 0 2.05-.499 2.64-1.279.618-.804.787-1.832.787-2.941h-1.63c-1.686 0-4.185.278-4.185 2.473.001 1.219 1.041 1.747 2.388 1.747zM114.943 24.451c-.675-.306-1.405-.529-2.557-.529-2.331 0-3.819 1.833-3.819 4.525 0 2.638 1.265 4.666 3.904 4.666 1.066 0 2.246-.39 2.893-.668l.169 3.082c-1.095.333-2.219.473-3.764.473-4.746 0-7.133-3.194-7.133-7.553 0-4.135 2.472-7.412 6.994-7.412 1.516 0 2.61.167 3.649.471l-.336 2.945zM123.36 21.035c4.299 0 7.585 2.859 7.585 7.58 0 4.108-2.781 7.385-7.585 7.385-4.773 0-7.556-3.276-7.556-7.385.001-4.72 3.289-7.58 7.556-7.58zm0 12.078c2.894 0 3.652-2.556 3.652-4.944 0-2.191-1.18-4.247-3.652-4.247-2.442 0-3.622 2.111-3.622 4.247 0 2.361.757 4.944 3.622 4.944zM132.435 21.367h3.342v3.249h.057c.168-1.331 1.713-3.581 3.96-3.581.365 0 .759 0 1.151.11v3.749c-.338-.194-1.011-.306-1.686-.306-3.062 0-3.062 3.776-3.062 5.83v5.248h-3.763V21.367h.001zM142.715 21.367h3.566v1.945h.058c1.179-1.64 2.779-2.277 4.745-2.277 3.427 0 4.916 2.388 4.916 5.607v9.024h-3.765V28.03c0-1.748-.027-4.109-2.443-4.109-2.725 0-3.314 2.916-3.314 4.747v6.998h-3.763V21.367z"/></g><g><path d="M13.357 14.006a28.451 28.451 0 0 1 14.185-5 6.754 6.754 0 0 0-1.208-3.17 6.914 6.914 0 0 0-4.871-2.87 4.24 4.24 0 0 0-.243-.026A22.89 22.89 0 0 0 9.503 5.146a8.525 8.525 0 0 0-.855-1.51C7.014 1.329 4.438.069 1.794 0l-.583 2.435A6.937 6.937 0 0 1 6.923 5.35c.219.31.409.633.569.962L9.585 7.73l-3.196-.433a22.327 22.327 0 0 0-6.141 10.16c-.024.085-.042.162-.059.234a6.757 6.757 0 0 0 1.063 5.507 6.878 6.878 0 0 0 2.541 2.179c2.029-4.422 5.247-8.382 9.564-11.371zm12.014-7.504c.308.436.543.898.713 1.375-.411.049-1.069.163-1.479.229-.229-2.019-2.095-3.528-3.017-3.948a5.738 5.738 0 0 1 3.783 2.344z"/><path d="M31.336 16.575a13.874 13.874 0 0 0-3.677-6.521 27.41 27.41 0 0 0-13.692 4.816A26.977 26.977 0 0 0 4.77 25.799a13.85 13.85 0 0 0 1.221 2.094 14.018 14.018 0 0 0 3.757 3.625c4.637 3.205 10.328 4.544 15.878 3.815.213-.015.425-.049.636-.096.369-.059.739-.125 1.105-.202.267.248.68.287.993.068l.009-.007a.77.77 0 0 0 .283-.949c.2-.316.389-.637.571-.958a4.76 4.76 0 0 0 .308-.559 22.083 22.083 0 0 0 1.805-16.055zm-3.481 16.596c1.326-3.368 1.818-5.785 1.851-9.87.032-4.093-.998-8.478-4.307-11.768a26.684 26.684 0 0 1 1.836-.231 13.201 13.201 0 0 1 2.594 4.454.08.08 0 0 1 .012-.014c1.942 5.839 1.176 12.224-1.986 17.429z"/></g></g></svg>